<svg xmlns="http://www.w3.org/2000/svg" viewBox="0 0 165 175"><defs><style>.cls-1{fill:#fc5672;}</style></defs><g id="Layer_2" data-name="Layer 2"><g id="Layer_5" data-name="Layer 5"><path class="cls-1" d="M112.5,175h-60A52.56,52.56,0,0,1,0,122.5a10,10,0,0,1,20,0A32.54,32.54,0,0,0,52.5,155h60a32.5,32.5,0,0,0,0-65h-60a37.5,37.5,0,0,1,0-75h60A37.54,37.54,0,0,1,150,52.5a5,5,0,0,0,10,0A47.56,47.56,0,0,0,112.5,5h-60a47.5,47.5,0,0,0,0,95,2.5,2.5,0,0,1,0,5,52.5,52.5,0,0,1,0-105h60A52.56,52.56,0,0,1,165,52.5a10,10,0,0,1-20,0A32.54,32.54,0,0,0,112.5,20h-60a32.5,32.5,0,0,0,0,65h60a37.5,37.5,0,0,1,0,75h-60A37.54,37.54,0,0,1,15,122.5a5,5,0,0,0-10,0A47.56,47.56,0,0,0,52.5,170h60a47.5,47.5,0,0,0,0-95,2.5,2.5,0,0,1,0-5,52.5,52.5,0,0,1,0,105Z"/></g></g></svg>