<svg xmlns="http://www.w3.org/2000/svg" viewBox="0 0 512 512"><defs><style>.cls-1{fill:#15447c;}.cls-2{fill:#fff;}</style></defs><g id="Layer_2" data-name="Layer 2"><g id="Layer_1-2" data-name="Layer 1"><circle class="cls-1" cx="256" cy="256" r="256"/><path class="cls-2" d="M232.38,326.56a150.09,150.09,0,0,1-41.27-5.63c-34.84-10-60.35-31.89-71.83-61.71s-7.24-63.19,11.93-94c17.9-28.72,47.07-52,82.13-65.46s72.3-15.8,104.83-6.48C353,103.31,378.52,125.22,390,155a22.8,22.8,0,1,1-42.55,16.38c-6.21-16.15-21.06-28.32-41.82-34.26-23.07-6.6-50-4.76-75.91,5.2s-47.11,26.66-59.8,47c-11.42,18.33-14.29,37.31-8.08,53.46s21.07,28.32,41.83,34.26c23.07,6.6,50,4.76,75.9-5.2a22.8,22.8,0,1,1,16.38,42.55A177.79,177.79,0,0,1,232.38,326.56Z"/><path class="cls-2" d="M235.1,424.3a150.09,150.09,0,0,1-41.27-5.63C159,408.69,133.48,386.78,122,357a22.8,22.8,0,1,1,42.55-16.38c6.21,16.15,21.06,28.31,41.82,34.26,23.07,6.6,50,4.76,75.91-5.2s47.11-26.66,59.8-47c11.42-18.33,14.29-37.31,8.08-53.46s-21.07-28.31-41.83-34.26c-23.07-6.61-50-4.76-75.9,5.2a22.8,22.8,0,1,1-16.38-42.55c35.07-13.5,72.3-15.8,104.83-6.48,34.84,10,60.35,31.89,71.83,61.71s7.24,63.19-11.93,94c-17.9,28.72-47.06,52-82.13,65.46A177.75,177.75,0,0,1,235.1,424.3Z"/></g></g></svg>