<svg xmlns="http://www.w3.org/2000/svg" viewBox="0 0 972.32 278.8"><defs><style>.cls-1{fill:#15447c;}.cls-2{fill:#fff;}</style></defs><g id="Layer_2" data-name="Layer 2"><g id="Layer_2-2" data-name="Layer 2"><circle class="cls-1" cx="139.4" cy="139.4" r="139.4"/><path class="cls-2" d="M126.54,177.82a81.54,81.54,0,0,1-22.47-3.06c-19-5.43-32.87-17.37-39.12-33.61S61,106.75,71.45,90c9.74-15.64,25.63-28.3,44.72-35.65s39.37-8.6,57.08-3.53c19,5.43,32.87,17.37,39.12,33.61a12.41,12.41,0,0,1-23.17,8.91c-3.39-8.79-11.48-15.41-22.78-18.65-12.56-3.6-27.24-2.59-41.33,2.83S99.43,92,92.52,103.13c-6.22,10-7.78,20.31-4.4,29.11s11.48,15.41,22.78,18.65c12.56,3.6,27.24,2.59,41.33-2.83a12.41,12.41,0,1,1,8.92,23.17A96.74,96.74,0,0,1,126.54,177.82Z"/><path class="cls-2" d="M128,231.05A81.65,81.65,0,0,1,105.55,228c-19-5.43-32.86-17.37-39.11-33.6a12.41,12.41,0,1,1,23.17-8.92c3.38,8.79,11.47,15.42,22.77,18.65,12.57,3.6,27.24,2.6,41.34-2.83s25.65-14.51,32.56-25.6c6.22-10,7.78-20.32,4.4-29.11s-11.47-15.42-22.78-18.66c-12.56-3.59-27.24-2.59-41.33,2.83a12.41,12.41,0,0,1-8.92-23.17c19.1-7.35,39.37-8.6,57.09-3.53,19,5.44,32.86,17.37,39.11,33.61s3.94,34.41-6.5,51.16c-9.74,15.64-25.62,28.3-44.72,35.64A96.75,96.75,0,0,1,128,231.05Z"/><path class="cls-1" d="M398.51,78.66c-17.32,0-29.31,7.46-29.31,18.92,0,10.65,8.79,14.65,22.91,19.71l24.78,9.32c29.57,11.19,46.62,26.11,46.62,53.29,0,33-26.11,53.28-65,53.28-28.51,0-49-8.8-62.08-21.85a15.46,15.46,0,0,1-5.06-11.45c0-7.2,9.06-17.59,17.85-17.59,4.8,0,8.26,2.67,11.72,5.33,9.59,7.46,20.52,12.52,37.57,12.52,17.31,0,29-7.46,29-20.24,0-10.13-8.25-15.46-21.84-20.52l-25-9.32c-29.84-10.92-47.42-22.65-47.42-52.48,0-31.17,25-51.95,65.27-51.95,14.65,0,33,1.86,50.61,15.18,3.73,2.93,6.93,7.46,6.93,12.52,0,8.26-8.53,17.85-17.05,17.85-4.53,0-7.19-1.86-9.59-3.46C416.36,79.46,405.43,78.66,398.51,78.66Z"/><path class="cls-1" d="M589.25,52c4-4.26,8-6.39,11.72-6.39,8.26,0,18.11,8.79,18.11,17.58,0,3.46-1.33,7.19-4.79,11.19L573,120c-1.07,1.34-1.6,1.6-1.6,2.94,0,1.06,1.06,1.86,1.6,2.93l53,80.45c2.4,3.73,3.46,6.93,3.46,9.86,0,8.52-10.12,17.05-18.91,17.05-4.53,0-8.79-1.87-12.52-7.73l-48-74.86c-1.06-1.6-1.59-2.13-2.66-2.13a2.66,2.66,0,0,0-1.86,1.07l-16,18.91c-1.6,2.13-1.6,6.13-1.6,7.73v42.35c0,11.72-9.05,14.66-17.31,14.66-8,0-17.32-2.94-17.32-14.66V60.28c0-11.72,9.33-14.65,17.32-14.65,8.26,0,17.31,2.93,17.31,14.65v53c0,2.67.54,3.47,1.87,3.47a3.35,3.35,0,0,0,1.6-.54Z"/><path class="cls-1" d="M758.94,46.69c10.92,0,14.92,8.26,14.92,16.79,0,8.26-4,16.78-14.92,16.78H691.27c-1.86,0-2.4.53-2.4,2.4v34.63c0,1.87.54,2.4,2.4,2.4h57.54c10.93,0,14.92,8.26,14.92,16.78,0,8.26-4,16.78-14.92,16.78H691.27c-1.86,0-2.4.54-2.4,2.4v40.5c0,1.86.54,2.39,2.4,2.39H761.6c10.92,0,14.92,8.53,14.92,17.05,0,8.26-4,16.52-14.92,16.52H669.43c-9.33,0-15.19-5.59-15.19-15.72v-154c0-10.12,5.86-15.72,15.19-15.72Z"/><path class="cls-1" d="M914.78,167.37c-8,15.19-12.79,23.71-25.31,23.71s-17.32-8.52-25.31-23.71L844.45,129s-.8-1.33-1.87-1.33c-1.33,0-1.33,2.13-1.33,2.13v88.71c0,11.72-9.06,14.66-17.32,14.66-8,0-17.31-2.94-17.31-14.66V65.34c0-13.85,6.92-19.71,19.71-19.71,9.33,0,16.25,3.73,22.91,17l38.1,76.19c1.06,1.86,1.06,3.2,2.13,3.2s1.07-1.34,2.13-3.2L930,62.68c6.66-13.32,13.32-17,22.65-17,12.78,0,19.71,5.86,19.71,19.71V218.52c0,11.72-9.32,14.66-17.32,14.66-8.25,0-17.31-2.94-17.31-14.66V129.81s0-2.13-1.33-2.13c-1.07,0-1.87,1.33-1.87,1.33Z"/></g></g></svg>